<?xml version="1.0" encoding="iso-8859-1"?>
<!-- Uploaded to: SVG Repo, www.svgrepo.com, Generator: SVG Repo Mixer Tools -->
<svg version="1.1" id="Layer_1" xmlns="http://www.w3.org/2000/svg" xmlns:xlink="http://www.w3.org/1999/xlink" 
	 viewBox="0 0 512 512" xml:space="preserve">
<path style="fill:#FF1D25;" d="M176.381,71.938c17.639,0,32.173-14.3,32.173-31.94V7.821h94.892v32.177
	c0,17.641,14.648,31.94,32.287,31.94"/>
<rect x="184.132" y="71.938" style="fill:#808080;" width="143.735" height="79.855"/>
<rect x="216.072" y="103.881" style="fill:#FFFFFF;" width="79.855" height="47.91"/>
<rect x="152.244" y="151.786" style="fill:#FBB03B;" width="207.511" height="23.955"/>
<path style="fill:#FF1D25;" d="M463.609,288.037c-61.74,0-111.79-48.721-111.79-111.288h-191.64
	c0,62.566-50.05,111.539-111.79,111.539"/>
<rect x="104.287" y="264.363" style="fill:#FBB03B;" width="303.436" height="22.937"/>
<g>
	<rect x="447.64" y="319.473" style="fill:#FF1D25;" width="31.94" height="63.88"/>
	<rect x="32.42" y="319.473" style="fill:#FF1D25;" width="31.94" height="63.88"/>
</g>
<rect x="128.24" y="287.533" style="fill:#808080;" width="255.52" height="167.688"/>
<rect x="168.168" y="367.378" style="fill:#FF1D25;" width="175.675" height="87.833"/>
<rect x="96.3" y="287.533" style="fill:#4D4D4D;" width="31.94" height="167.688"/>
<rect x="96.3" y="407.306" style="fill:#FF1D25;" width="31.94" height="47.91"/>
<rect x="383.76" y="287.533" style="fill:#4D4D4D;" width="31.94" height="167.688"/>
<rect x="383.76" y="407.306" style="fill:#FF1D25;" width="31.94" height="47.91"/>
<rect x="80.325" y="455.221" style="fill:#FBB03B;" width="351.34" height="24.455"/>
<rect x="49.01" y="479.174" style="fill:#FF1D25;" width="413.98" height="23.956"/>
<rect y="495.837" width="512" height="15.642"/>
<rect x="49.01" y="471.853" width="413.98" height="15.642"/>
<polygon points="352.456,439.528 336.815,439.528 336.815,374.876 175.185,374.876 175.185,439.528 159.544,439.528 
	159.544,359.234 352.456,359.234 "/>
<g>
	<rect x="159.544" y="336.293" style="fill:#FFFFFF;" width="192.912" height="15.642"/>
	<rect x="208.554" y="311.267" style="fill:#FFFFFF;" width="94.892" height="15.642"/>
	<rect x="224.196" y="407.202" style="fill:#FFFFFF;" width="15.642" height="15.642"/>
	<rect x="272.163" y="407.202" style="fill:#FFFFFF;" width="15.642" height="15.642"/>
</g>
<polygon points="303.446,136.081 287.805,136.081 287.805,112.098 224.196,112.098 224.196,136.081 208.554,136.081 208.554,96.456 
	303.446,96.456 "/>
<path d="M368.098,32.847v15.642h14.391c-3.395,9.011-12.413,15.642-22.685,15.642h-24.032v-0.014
	c-13.556,0-23.984-10.82-23.984-24.119V0.521H200.212v39.476c0,13.299-10.428,24.119-23.984,24.119v0.014h-24.035
	c-10.272,0-19.291-6.631-22.686-15.642h14.395V32.847h-31.283v7.821c0,21.196,18.021,39.104,39.574,39.104h25.078v63.609h-25.026
	v15.642h207.511v-15.642h-25.026V79.772h25.074c21.553,0,39.577-17.907,39.577-39.104v-7.821H368.098z M215.853,39.998V16.163
	h80.293v23.835c0,9.07,3.041,17.435,8.148,24.133h-16.49V23.462h-15.642V64.13h-9.385V23.462h-15.642V64.13h-7.299V23.462h-15.642
	V64.13h-16.49C212.813,57.433,215.853,49.068,215.853,39.998z M319.088,143.381h-56.31V120.44h-15.642v22.941h-54.224V79.772
	h126.175V143.381z"/>
<path d="M463.511,199.69h-7.821v31.283h15.642v-14.625c14.477,3.232,24.332,15.447,24.332,31.395
	c0,17.634-14.151,31.999-31.631,32.23v-0.018c-28.155,0-54.161-10.67-73.694-30.044c-5.745-5.698-10.74-11.973-14.942-18.699v-0.239
	h-0.148c-10.057-16.196-15.493-35.003-15.493-54.745v-7.821H152.244v7.821c0,19.734-5.429,38.54-15.472,54.745h-0.17v0.274
	c-4.203,6.735-9.2,13.02-14.946,18.728c-18.527,18.406-42.862,28.964-69.337,30.008h-3.932c-17.674,0-32.054-14.463-32.054-32.24
	c0-15.364,10.201-27.9,24.334-31.316v14.547H56.31V199.69h-7.821c-26.801,0-47.796,21.117-47.796,47.966
	c0,26.261,21.169,47.728,47.275,47.957v0.103c1.542,0,40.668-0.093,40.668-0.093v151.202h-8.342v15.642h351.413v-15.642h-8.342
	V295.624h40.245c26.301,0,47.696-21.566,47.696-47.968C511.306,220.361,490.759,199.69,463.511,199.69z M132.737,261.073
	c1.323-1.314,2.611-2.656,3.866-4.022v14.59h15.642v-35.922c8.992-15.644,14.346-33.225,15.509-51.67h0.132v87.593h15.642v-87.593
	h16.684v87.593h15.642v-87.593h15.642v87.593h15.642v-87.593h17.727v87.593h15.642v-87.593h15.642v87.593h15.642v-87.593h16.684
	v87.593h15.642v-87.593h0.129c1.163,18.441,6.519,36.012,15.512,51.642v35.951h15.642v-14.643c1.256,1.365,2.544,2.705,3.869,4.019
	c7.541,7.48,15.927,13.826,24.958,18.967H107.934C116.904,274.85,125.238,268.524,132.737,261.073z M104.277,415.544h16.684v31.283
	h-16.684V415.544z M391.039,446.827v-31.283h16.684v31.283H391.039z M407.723,399.902h-16.684v-96.978h-15.642v143.902H262.778
	v-63.609h-15.642v63.609H136.603V302.925h-15.642v96.978h-16.684V295.625h303.446V399.902z"/>
<path d="M471.332,302.925H455.69v8.728h-15.873v79.522h15.873v16.027h15.642v-16.027h16.067v-79.522h-16.067V302.925z
	 M471.757,375.533h-16.298v-48.239h16.298V375.533z"/>
<path d="M56.31,302.925H40.668v8.728H24.597v79.522h16.071v16.027H56.31v-16.027h15.869v-79.522H56.31V302.925z M56.537,375.533
	H40.238v-48.239h16.298V375.533z"/>
</svg>